# OBJ written from C:\Users\nhull\Desktop\gizmos_single\Move.obj
# Units	meters

o Y
v 0 1.7 -0.04
v -0.0153073 1.7 -0.0369552
v -0.0282843 1.7 -0.0282843
v -0.0369552 1.7 -0.0153073
v -0.04 1.7 0
v -0.0369552 1.7 0.0153073
v -0.0282843 1.7 0.0282843
v -0.0153073 1.7 0.0369552
v 0 1.7 0.04
v 0.0153073 1.7 0.0369552
v 0.0282843 1.7 0.0282843
v 0.0369552 1.7 0.0153073
v 0.04 1.7 0
v 0.0369552 1.7 -0.0153073
v 0.0282843 1.7 -0.0282843
v 0.0153073 1.7 -0.0369552
v 0 0.4 -0.04
v -0.0153073 0.4 -0.0369552
v -0.0282843 0.4 -0.0282843
v -0.0369552 0.4 -0.0153073
v -0.04 0.4 6.245e-017
v 0.04 0.4 6.245e-017
v 0.0369552 0.4 -0.0153073
v 0.0282843 0.4 -0.0282843
v 0.0153073 0.4 -0.0369552
v -0.0369552 0.4 0.0153073
v -0.0282843 0.4 0.0282843
v -0.0153073 0.4 0.0369552
v 0 0.4 0.04
v 0.0153073 0.4 0.0369552
v 0.0282843 0.4 0.0282843
v 0.0369552 0.4 0.0153073
v 3.72529e-009 1.7 -0.132
v -0.0341641 1.7 -0.127502
v -0.066 1.7 -0.114315
v -0.0933381 1.7 -0.0933381
v -0.114315 1.7 -0.066
v -0.127502 1.7 -0.0341641
v -0.132 1.7 0
v -0.127502 1.7 0.0341641
v -0.114315 1.7 0.066
v -0.0933381 1.7 0.0933381
v -0.066 1.7 0.114315
v -0.0341641 1.7 0.127502
v 3.72529e-009 1.7 0.132
v 0.0341641 1.7 0.127502
v 0.066 1.7 0.114315
v 0.0933381 1.7 0.0933381
v 0.114315 1.7 0.066
v 0.127502 1.7 0.0341641
v 0.132 1.7 0
v 0.127502 1.7 -0.0341641
v 0.114315 1.7 -0.066
v 0.0933381 1.7 -0.0933381
v 0.066 1.7 -0.114315
v 0.0341641 1.7 -0.127502
v 3.72529e-009 2 0
v 3.72529e-009 1.7 0
vn 0 1 0
vn 0 0 -1
vn -0.382683 0 -0.92388
vn -0.707107 0 -0.707107
vn -0.92388 0 -0.382683
vn -1 4.77772e-018 0
vn -0.92388 4.77772e-018 0.382683
vn -0.707107 0 0.707107
vn -0.382683 0 0.92388
vn 0 0 1
vn 0.382683 0 0.92388
vn 0.707107 0 0.707107
vn 0.92388 0 0.382683
vn 1 -4.77772e-018 0
vn 0.92388 -4.77772e-018 -0.382683
vn 0.707107 0 -0.707107
vn 0.382683 0 -0.92388
vn 0 -1 0
vn 0 0.402739 -0.915315
vn 0.118235 0.423633 -0.898084
vn 0.236901 0.402739 -0.884126
vn 0.346647 0.423634 -0.836881
vn 0.457657 0.402739 -0.792686
vn 0.647225 0.402739 -0.647226
vn 0.551437 0.423634 -0.718646
vn 0.792686 0.402739 -0.457657
vn 0.718646 0.423634 -0.551436
vn 0.884127 0.402739 -0.2369
vn 0.836881 0.423634 -0.346647
vn 0.898084 0.423633 -0.118235
vn 0.915315 0.402739 0
vn 0.898084 0.423633 0.118235
vn 0.884127 0.402739 0.2369
vn 0.792686 0.402739 0.457657
vn 0.836881 0.423634 0.346647
vn 0.647225 0.402739 0.647226
vn 0.718646 0.423634 0.551436
vn 0.457657 0.402739 0.792686
vn 0.551437 0.423634 0.718646
vn 0.236901 0.402739 0.884126
vn 0.346647 0.423634 0.836881
vn 0.118235 0.423633 0.898084
vn 0 0.402739 0.915315
vn -0.118235 0.423633 0.898084
vn -0.236901 0.402739 0.884126
vn -0.457657 0.402739 0.792686
vn -0.346647 0.423634 0.836881
vn -0.647225 0.402739 0.647226
vn -0.551437 0.423634 0.718646
vn -0.792686 0.402739 0.457657
vn -0.718646 0.423634 0.551436
vn -0.884127 0.402739 0.2369
vn -0.836881 0.423634 0.346647
vn -0.898084 0.423633 0.118235
vn -0.915315 0.402739 0
vn -0.898084 0.423633 -0.118235
vn -0.884127 0.402739 -0.2369
vn -0.836881 0.423634 -0.346647
vn -0.792686 0.402739 -0.457657
vn -0.647225 0.402739 -0.647226
vn -0.718646 0.423634 -0.551436
vn -0.457657 0.402739 -0.792686
vn -0.551437 0.423634 -0.718646
vn -0.236901 0.402739 -0.884126
vn -0.346647 0.423634 -0.836881
vn -0.118235 0.423633 -0.898084
vt 0.495196 0.798773
vt 0.457867 0.888893
vt 0.388893 0.957867
vt 0.298773 0.995196
vt 0.201227 0.995196
vt 0.111107 0.957867
vt 0.0421326 0.888893
vt 0.00480368 0.798773
vt 0.00480368 0.701227
vt 0.0421326 0.611107
vt 0.111107 0.542133
vt 0.201227 0.504804
vt 0.298773 0.504804
vt 0.388893 0.542133
vt 0.457867 0.611107
vt 0.495196 0.701227
vt 0 0.5
vt 0 0
vt 0.0625 0
vt 0.0625 0.5
vt 0.125 0
vt 0.125 0.5
vt 0.1875 0
vt 0.1875 0.5
vt 0.25 0
vt 0.25 0.5
vt 0.3125 0
vt 0.3125 0.5
vt 0.375 0
vt 0.375 0.5
vt 0.4375 0
vt 0.4375 0.5
vt 0.5 0
vt 0.5 0.5
vt 0.5625 0
vt 0.5625 0.5
vt 0.625 0
vt 0.625 0.5
vt 0.6875 0
vt 0.6875 0.5
vt 0.75 0
vt 0.75 0.5
vt 0.8125 0
vt 0.8125 0.5
vt 0.875 0
vt 0.875 0.5
vt 0.9375 0
vt 0.9375 0.5
vt 1 0
vt 1 0.5
vt 0.497861 0.782632
vt 0.25 0.75
vt 0.497861 0.717368
vt 0.48097 0.654329
vt 0.448338 0.59781
vt 0.40219 0.551662
vt 0.345671 0.51903
vt 0.282632 0.502139
vt 0.217368 0.502139
vt 0.154329 0.51903
vt 0.0978096 0.551662
vt 0.0516617 0.59781
vt 0.0190301 0.654329
vt 0.00213878 0.717368
vt 0.00213878 0.782632
vt 0.0190301 0.845671
vt 0.0516617 0.90219
vt 0.0978096 0.948338
vt 0.154329 0.98097
vt 0.217368 0.997861
vt 0.282632 0.997861
vt 0.345671 0.98097
vt 0.40219 0.948338
vt 0.448338 0.90219
vt 0.48097 0.845671
vt 0.997861 0.717368
vt 0.997861 0.782632
vt 0.75 0.75
vt 0.98097 0.845671
vt 0.948338 0.90219
vt 0.90219 0.948338
vt 0.845671 0.98097
vt 0.782632 0.997861
vt 0.717368 0.997861
vt 0.654329 0.98097
vt 0.59781 0.948338
vt 0.551662 0.90219
vt 0.51903 0.845671
vt 0.502139 0.782632
vt 0.502139 0.717368
vt 0.51903 0.654329
vt 0.551662 0.59781
vt 0.59781 0.551662
vt 0.654329 0.51903
vt 0.717368 0.502139
vt 0.782632 0.502139
vt 0.845671 0.51903
vt 0.90219 0.551662
vt 0.948338 0.59781
vt 0.98097 0.654329
mtllib Move.mtl
usemtl Green
g Default
f 1/1/1 2/2/1 3/3/1 4/4/1 5/5/1 6/6/1 7/7/1 8/8/1 9/9/1 10/10/1 11/11/1 12/12/1 13/13/1 14/14/1 15/15/1 16/16/1
f 1/17/2 17/18/2 18/19/3 2/20/3
f 2/20/3 18/19/3 19/21/4 3/22/4
f 3/22/4 19/21/4 20/23/5 4/24/5
f 4/24/5 20/23/5 21/25/6 5/26/6
f 5/26/6 21/25/6 26/27/7 6/28/7
f 6/28/7 26/27/7 27/29/8 7/30/8
f 7/30/8 27/29/8 28/31/9 8/32/9
f 8/32/9 28/31/9 29/33/10 9/34/10
f 9/34/10 29/33/10 30/35/11 10/36/11
f 10/36/11 30/35/11 31/37/12 11/38/12
f 11/38/12 31/37/12 32/39/13 12/40/13
f 12/40/13 32/39/13 22/41/14 13/42/14
f 13/42/14 22/41/14 23/43/15 14/44/15
f 14/44/15 23/43/15 24/45/16 15/46/16
f 15/46/16 24/45/16 25/47/17 16/48/17
f 16/48/17 25/47/17 17/49/2 1/50/2
f 18/19/18 17/18/18 25/47/18 24/45/18 23/43/18 22/41/18 32/39/18 31/37/18 30/35/18 29/33/18 28/31/18 27/29/18 26/27/18 21/25/18 20/23/18 19/21/18
f 33/51/19 57/52/20 56/53/21
f 56/53/21 57/52/22 55/54/23
f 54/55/24 55/54/23 57/52/25
f 53/56/26 54/55/24 57/52/27
f 52/57/28 53/56/26 57/52/29
f 52/57/28 57/52/30 51/58/31
f 51/58/31 57/52/32 50/59/33
f 49/60/34 50/59/33 57/52/35
f 48/61/36 49/60/34 57/52/37
f 47/62/38 48/61/36 57/52/39
f 46/63/40 47/62/38 57/52/41
f 46/63/40 57/52/42 45/64/43
f 45/64/43 57/52/44 44/65/45
f 43/66/46 44/65/45 57/52/47
f 42/67/48 43/66/46 57/52/49
f 41/68/50 42/67/48 57/52/51
f 40/69/52 41/68/50 57/52/53
f 40/69/52 57/52/54 39/70/55
f 39/70/55 57/52/56 38/71/57
f 38/71/57 57/52/58 37/72/59
f 36/73/60 37/72/59 57/52/61
f 35/74/62 36/73/60 57/52/63
f 34/75/64 35/74/62 57/52/65
f 34/75/64 57/52/66 33/51/19
f 33/76/18 56/77/18 58/78/18
f 56/77/18 55/79/18 58/78/18
f 55/79/18 54/80/18 58/78/18
f 54/80/18 53/81/18 58/78/18
f 53/81/18 52/82/18 58/78/18
f 52/82/18 51/83/18 58/78/18
f 51/83/18 50/84/18 58/78/18
f 50/84/18 49/85/18 58/78/18
f 49/85/18 48/86/18 58/78/18
f 48/86/18 47/87/18 58/78/18
f 47/87/18 46/88/18 58/78/18
f 46/88/18 45/89/18 58/78/18
f 45/89/18 44/90/18 58/78/18
f 44/90/18 43/91/18 58/78/18
f 43/91/18 42/92/18 58/78/18
f 42/92/18 41/93/18 58/78/18
f 41/93/18 40/94/18 58/78/18
f 40/94/18 39/95/18 58/78/18
f 39/95/18 38/96/18 58/78/18
f 38/96/18 37/97/18 58/78/18
f 37/97/18 36/98/18 58/78/18
f 36/98/18 35/99/18 58/78/18
f 35/99/18 34/100/18 58/78/18
f 34/100/18 33/76/18 58/78/18
